<svg xmlns="http://www.w3.org/2000/svg" viewBox="0 0 176.87 201.1"><defs><style>.cls-1,.cls-2,.cls-4{fill:none;}.cls-1,.cls-2,.cls-3,.cls-4{stroke:#fff;stroke-miterlimit:10;}.cls-1,.cls-4{stroke-width:6px;}.cls-2{stroke-width:5px;}.cls-3{fill:#fff;}.cls-4{stroke-linecap:round;}</style></defs><g id="Layer_2" data-name="Layer 2"><g id="Layer_1-2" data-name="Layer 1"><rect class="cls-1" x="41.39" y="54.92" width="93.16" height="58.42" rx="15.94"/><rect class="cls-1" x="21.11" y="32.79" width="133.72" height="96.8" rx="32.72"/><path class="cls-1" d="M173.87,81.19c0,12.3-6.74,22.27-19,22.27V58.92C167.13,58.92,173.87,68.89,173.87,81.19Z"/><path class="cls-1" d="M3,83.75C3,96.05,9.74,106,22,106V61.48C9.74,61.48,3,71.45,3,83.75Z"/><line class="cls-2" x1="88.42" y1="32.79" x2="88.42" y2="18.53"/><circle class="cls-2" cx="87.97" cy="11.38" r="8.88"/><path class="cls-1" d="M29.06,171.76v-.63c0-15,11.71-27.16,26.16-27.16h65.42c14.45,0,26.16,12.16,26.16,27.16h0"/><circle class="cls-3" cx="65.04" cy="73.46" r="7.55"/><circle class="cls-3" cx="111.29" cy="73.46" r="7.55"/><path class="cls-4" d="M102.35,94.93c-7.95,8.8-20.6,8.55-28.28-.56"/><path class="cls-4" d="M158.62,103.12s5.72-5.14,5.73,23.67c0,28.13-18.12,46.06-22.46,50.12-5.31,5-24.45,21.42-54.06,21.19s-48.36-16.86-53.47-21.74c-4.43-4.25-21.87-22-21.87-49.57,0-28.3,4.31-20.21,7.12-21.58"/></g></g></svg>