<svg
	xmlns="http://www.w3.org/2000/svg" viewBox="0 0 159.29 197.78">
	<defs>
		<style>.cls-1,.cls-2{box-shadow: 0 0 7px #00fff8;fill:none;stroke:#fff;stroke-miterlimit:10;}.cls-1{stroke-linecap:round;stroke-width:10px;}.cls-2{stroke-width:9px;}</style>
	</defs>
	<g id="Layer_2" data-name="Layer 2">
		<g id="Layer_1-2" data-name="Layer 1">
			<path class="cls-1" d="M41.36,44.39C60.26,26,83.41,25.74,88.83,25.84c3.64.06,28.09.88,46.83,20.26a66.24,66.24,0,0,1,18.62,47.41A66.24,66.24,0,0,1,134,140"/>
			<path class="cls-1" d="M41.36,44.39C60.26,26,83.41,25.74,88.84,25.84c3.63.06,28.08.88,46.82,20.26a66.24,66.24,0,0,1,18.62,47.41A66.24,66.24,0,0,1,134,140"/>
			<path class="cls-2" d="M24.5,104.79h0"/>
			<line class="cls-1" x1="41.63" y1="45.22" x2="82.32" y2="48.78"/>
			<line class="cls-1" x1="41.15" y1="45" x2="54.8" y2="5"/>
			<path class="cls-1" d="M118.75,153.16C100.18,171.89,77,172.54,71.61,172.54c-3.63,0-28.09-.4-47.17-19.44A68.15,68.15,0,0,1,7.23,123.26a66.37,66.37,0,0,1,17.21-64"/>
			<line class="cls-1" x1="118.47" y1="152.34" x2="77.73" y2="149.49"/>
			<line class="cls-1" x1="118.95" y1="152.55" x2="106.01" y2="192.78"/>
		</g>
	</g>
</svg>